# xmcd
#
# Track frame offsets: 
#        150
#        12391
#        28420
#        42786
#        56021
#        71207
#        81190
#        100743
#        115962
#        131788
#        145301
#        158321
#        169418
#        185000
#
# Disc length: 2662 seconds
#
# Revision: 1
# Processed by: cddbd v1.5.2PL0 Copyright (c) Steve Scherf et al.
# Submitted via: ExactAudioCopy v0.99pb4
#
DISCID=c80a640e
DTITLE=Pat Donohue - Profile
DYEAR=2005
DGENRE=Jazz
TTITLE0=Caroline
TTITLE1=Buddy the Blues
TTITLE2=Drowning
TTITLE3=Jazz Name
TTITLE4=Blues for Two
TTITLE5=Long Time No See
TTITLE6=Risin' River
TTITLE7=It Could Be Worse
TTITLE8=Do You Love Me?
TTITLE9=Give a Dog a Bone
TTITLE10=I Blew It
TTITLE11=My True Love
TTITLE12=December Waltz
TTITLE13=Step It Up and Go
EXTD=
EXTT0=
EXTT1=
EXTT2=
EXTT3=
EXTT4=
EXTT5=
EXTT6=
EXTT7=
EXTT8=
EXTT9=
EXTT10=
EXTT11=
EXTT12=
EXTT13=
PLAYORDER=
